<svg width="45" height="50" viewBox="0 0 45 50" fill="none" xmlns="http://www.w3.org/2000/svg">
<circle cx="22.5" cy="24.3486" r="22" stroke="#292D32"/>
<g filter="url(#filter0_d_3918_6181)">
<path d="M11.0825 37.0732C11.087 36.9793 11.0914 36.8854 11.0959 36.7915C14.9172 34.6949 18.7385 32.5981 22.5597 30.5012C22.8037 30.3672 23.0865 30.2713 23.1734 29.9713C23.6333 29.8661 23.4999 29.5079 23.5004 29.2305C23.507 25.4816 23.507 21.7328 23.5001 17.9839C23.4996 17.7064 23.6322 17.3479 23.1699 17.2461C23.0518 16.8836 23.3392 16.7802 23.5874 16.645C26.8246 14.8819 30.0611 13.118 33.2968 11.3533L33.3472 11.3669L33.3961 11.3476C33.5522 11.5437 33.4744 11.757 33.4461 11.9666C33.3033 12.0302 33.3069 12.0917 33.4489 12.1512C33.4481 12.2714 33.4473 12.3917 33.4465 12.5119C33.2371 12.6298 33.2427 12.7515 33.4394 12.8766C33.4628 13.0256 33.4783 13.1757 33.4856 13.3262C33.4781 20.478 33.4552 27.6299 33.475 34.7816C33.4773 35.6132 33.1699 36.0795 32.4198 36.4875C25.5995 40.1981 18.7905 43.9277 11.9928 47.6762C11.0859 48.1735 11.0778 48.1674 11.0777 47.1644C11.0774 43.8007 11.079 40.437 11.0825 37.0732Z" fill="#333333"/>
<path d="M33.3961 11.3476L33.3472 11.3669L33.2968 11.3533C33.0266 11.1055 32.6915 11.2271 32.3872 11.2262C29.6181 11.2176 26.8487 11.202 24.0801 11.2358C23.3794 11.2443 23.1268 11.0675 23.1529 10.3703C23.2049 8.9785 23.1695 7.58347 23.1557 6.18992C23.1522 5.8367 23.197 5.54571 23.562 5.34662C26.8133 3.57312 30.0594 1.79084 33.3274 0C33.5575 0.458599 33.5249 0.883182 33.5162 1.29738C33.4529 4.32667 33.4732 7.35534 33.5771 10.3834C33.5895 10.733 33.3786 11.0147 33.3961 11.3476Z" fill="#DC9919"/>
</g>
<defs>
<filter id="filter0_d_3918_6181" x="10.4639" y="0" width="23.7275" height="49.2275" filterUnits="userSpaceOnUse" color-interpolation-filters="sRGB">
<feFlood flood-opacity="0" result="BackgroundImageFix"/>
<feColorMatrix in="SourceAlpha" type="matrix" values="0 0 0 0 0 0 0 0 0 0 0 0 0 0 0 0 0 0 127 0" result="hardAlpha"/>
<feOffset dy="0.613729"/>
<feGaussianBlur stdDeviation="0.306864"/>
<feComposite in2="hardAlpha" operator="out"/>
<feColorMatrix type="matrix" values="0 0 0 0 0 0 0 0 0 0 0 0 0 0 0 0 0 0 0.25 0"/>
<feBlend mode="normal" in2="BackgroundImageFix" result="effect1_dropShadow_3918_6181"/>
<feBlend mode="normal" in="SourceGraphic" in2="effect1_dropShadow_3918_6181" result="shape"/>
</filter>
</defs>
</svg>
